<mxfile host="app.diagrams.net" agent="Mozilla/5.0 (Windows NT 10.0; Win64; x64) AppleWebKit/537.36 (KHTML, like Gecko) Chrome/134.0.0.0 Safari/537.36" version="26.1.1">
  <diagram name="PÃ¡gina-1" id="NZGfq8iE-nIhO5AJxEMI">
    <mxGraphModel dx="1430" dy="781" grid="1" gridSize="10" guides="1" tooltips="1" connect="1" arrows="1" fold="1" page="1" pageScale="1" pageWidth="827" pageHeight="1169" math="0" shadow="0">
      <root>
        <mxCell id="0" />
        <mxCell id="1" parent="0" />
        <mxCell id="05c5oO42lA_t3GkPCbME-3" style="edgeStyle=orthogonalEdgeStyle;rounded=0;orthogonalLoop=1;jettySize=auto;html=1;startArrow=classic;startFill=1;" edge="1" parent="1" source="05c5oO42lA_t3GkPCbME-2" target="05c5oO42lA_t3GkPCbME-4">
          <mxGeometry relative="1" as="geometry">
            <mxPoint x="410" y="471.5" as="targetPoint" />
          </mxGeometry>
        </mxCell>
        <mxCell id="05c5oO42lA_t3GkPCbME-2" value="client" style="outlineConnect=0;dashed=0;verticalLabelPosition=bottom;verticalAlign=top;align=center;html=1;shape=mxgraph.aws3.management_console;fillColor=#D2D3D3;gradientColor=none;" vertex="1" parent="1">
          <mxGeometry x="250" y="440" width="63" height="63" as="geometry" />
        </mxCell>
        <mxCell id="05c5oO42lA_t3GkPCbME-4" value="Vercel hosted&amp;nbsp;&lt;div&gt;front-end&lt;/div&gt;" style="shape=image;html=1;verticalAlign=top;verticalLabelPosition=bottom;labelBackgroundColor=#ffffff;imageAspect=0;aspect=fixed;image=https://cdn1.iconfinder.com/data/icons/ionicons-fill-vol-2/512/logo-vercel-128.png" vertex="1" parent="1">
          <mxGeometry x="400" y="440" width="64.75" height="64.75" as="geometry" />
        </mxCell>
        <mxCell id="05c5oO42lA_t3GkPCbME-7" value="" style="whiteSpace=wrap;html=1;" vertex="1" parent="1">
          <mxGeometry x="547.46" y="350" width="440" height="330" as="geometry" />
        </mxCell>
        <mxCell id="05c5oO42lA_t3GkPCbME-6" value="Amazon Lightsail" style="sketch=0;outlineConnect=0;fontColor=#232F3E;gradientColor=none;strokeColor=#ffffff;fillColor=#232F3E;dashed=0;verticalLabelPosition=middle;verticalAlign=bottom;align=center;html=1;whiteSpace=wrap;fontSize=10;fontStyle=1;spacing=3;shape=mxgraph.aws4.productIcon;prIcon=mxgraph.aws4.lightsail;" vertex="1" parent="1">
          <mxGeometry x="559.92" y="357.63" width="30" height="55.25" as="geometry" />
        </mxCell>
        <mxCell id="05c5oO42lA_t3GkPCbME-16" style="edgeStyle=orthogonalEdgeStyle;rounded=0;orthogonalLoop=1;jettySize=auto;html=1;exitX=0.475;exitY=0.995;exitDx=0;exitDy=0;exitPerimeter=0;startArrow=classic;startFill=1;" edge="1" parent="1" source="05c5oO42lA_t3GkPCbME-10" target="05c5oO42lA_t3GkPCbME-12">
          <mxGeometry relative="1" as="geometry">
            <mxPoint x="660" y="472" as="sourcePoint" />
          </mxGeometry>
        </mxCell>
        <mxCell id="05c5oO42lA_t3GkPCbME-19" style="edgeStyle=orthogonalEdgeStyle;rounded=0;orthogonalLoop=1;jettySize=auto;html=1;startArrow=classic;startFill=1;" edge="1" parent="1" source="05c5oO42lA_t3GkPCbME-10" target="05c5oO42lA_t3GkPCbME-17">
          <mxGeometry relative="1" as="geometry" />
        </mxCell>
        <mxCell id="05c5oO42lA_t3GkPCbME-29" style="edgeStyle=orthogonalEdgeStyle;rounded=0;orthogonalLoop=1;jettySize=auto;html=1;exitX=1;exitY=0.25;exitDx=0;exitDy=0;startArrow=classic;startFill=1;" edge="1" parent="1" source="05c5oO42lA_t3GkPCbME-10" target="05c5oO42lA_t3GkPCbME-28">
          <mxGeometry relative="1" as="geometry" />
        </mxCell>
        <mxCell id="05c5oO42lA_t3GkPCbME-42" style="edgeStyle=orthogonalEdgeStyle;rounded=0;orthogonalLoop=1;jettySize=auto;html=1;entryX=0;entryY=0.5;entryDx=0;entryDy=0;exitX=1.03;exitY=0.79;exitDx=0;exitDy=0;exitPerimeter=0;" edge="1" parent="1" source="05c5oO42lA_t3GkPCbME-10" target="05c5oO42lA_t3GkPCbME-36">
          <mxGeometry relative="1" as="geometry" />
        </mxCell>
        <mxCell id="05c5oO42lA_t3GkPCbME-10" value="&lt;h6&gt;API Gateway&lt;/h6&gt;" style="whiteSpace=wrap;html=1;aspect=fixed;" vertex="1" parent="1">
          <mxGeometry x="580" y="438.57" width="67.62" height="67.62" as="geometry" />
        </mxCell>
        <mxCell id="05c5oO42lA_t3GkPCbME-8" value="" style="image;sketch=0;aspect=fixed;html=1;points=[];align=center;fontSize=12;image=img/lib/mscae/Docker.svg;" vertex="1" parent="1">
          <mxGeometry x="584.02" y="443" width="21.95" height="18" as="geometry" />
        </mxCell>
        <mxCell id="05c5oO42lA_t3GkPCbME-11" style="edgeStyle=orthogonalEdgeStyle;rounded=0;orthogonalLoop=1;jettySize=auto;html=1;startArrow=classic;startFill=1;" edge="1" parent="1" source="05c5oO42lA_t3GkPCbME-4" target="05c5oO42lA_t3GkPCbME-10">
          <mxGeometry relative="1" as="geometry" />
        </mxCell>
        <mxCell id="05c5oO42lA_t3GkPCbME-20" style="edgeStyle=orthogonalEdgeStyle;rounded=0;orthogonalLoop=1;jettySize=auto;html=1;startArrow=classic;startFill=1;" edge="1" parent="1" source="05c5oO42lA_t3GkPCbME-12" target="05c5oO42lA_t3GkPCbME-17">
          <mxGeometry relative="1" as="geometry" />
        </mxCell>
        <mxCell id="05c5oO42lA_t3GkPCbME-12" value="" style="whiteSpace=wrap;html=1;aspect=fixed;" vertex="1" parent="1">
          <mxGeometry x="572" y="581" width="80" height="80" as="geometry" />
        </mxCell>
        <mxCell id="05c5oO42lA_t3GkPCbME-13" value="" style="image;sketch=0;aspect=fixed;html=1;points=[];align=center;fontSize=12;image=img/lib/mscae/Docker.svg;" vertex="1" parent="1">
          <mxGeometry x="577" y="585" width="21.95" height="18" as="geometry" />
        </mxCell>
        <mxCell id="05c5oO42lA_t3GkPCbME-15" value="" style="image;aspect=fixed;html=1;points=[];align=center;fontSize=12;image=img/lib/azure2/databases/Azure_Database_PostgreSQL_Server.svg;" vertex="1" parent="1">
          <mxGeometry x="596.43" y="611" width="31.13" height="41.5" as="geometry" />
        </mxCell>
        <mxCell id="05c5oO42lA_t3GkPCbME-43" style="edgeStyle=orthogonalEdgeStyle;rounded=0;orthogonalLoop=1;jettySize=auto;html=1;entryX=0;entryY=0.75;entryDx=0;entryDy=0;" edge="1" parent="1" source="05c5oO42lA_t3GkPCbME-17" target="05c5oO42lA_t3GkPCbME-36">
          <mxGeometry relative="1" as="geometry" />
        </mxCell>
        <mxCell id="05c5oO42lA_t3GkPCbME-17" value="&lt;h6&gt;Worker&lt;/h6&gt;" style="whiteSpace=wrap;html=1;aspect=fixed;" vertex="1" parent="1">
          <mxGeometry x="740" y="570" width="60" height="60" as="geometry" />
        </mxCell>
        <mxCell id="05c5oO42lA_t3GkPCbME-18" value="" style="image;sketch=0;aspect=fixed;html=1;points=[];align=center;fontSize=12;image=img/lib/mscae/Docker.svg;" vertex="1" parent="1">
          <mxGeometry x="744" y="573" width="21.95" height="18" as="geometry" />
        </mxCell>
        <mxCell id="05c5oO42lA_t3GkPCbME-23" value="&lt;font style=&quot;font-size: 8px;&quot;&gt;Amazon ECR&lt;/font&gt;" style="sketch=0;outlineConnect=0;fontColor=#232F3E;gradientColor=none;strokeColor=#ffffff;fillColor=#232F3E;dashed=0;verticalLabelPosition=middle;verticalAlign=bottom;align=center;html=1;whiteSpace=wrap;fontSize=10;fontStyle=1;spacing=3;shape=mxgraph.aws4.productIcon;prIcon=mxgraph.aws4.ecr;" vertex="1" parent="1">
          <mxGeometry x="619.92" y="357.63" width="32.08" height="60" as="geometry" />
        </mxCell>
        <mxCell id="05c5oO42lA_t3GkPCbME-24" value="" style="shape=image;html=1;verticalAlign=top;verticalLabelPosition=bottom;labelBackgroundColor=#ffffff;imageAspect=0;aspect=fixed;image=https://cdn3.iconfinder.com/data/icons/user-interface-169/32/plus-128.png" vertex="1" parent="1">
          <mxGeometry x="589.92" y="357.63" width="30" height="30" as="geometry" />
        </mxCell>
        <mxCell id="05c5oO42lA_t3GkPCbME-28" value="" style="dashed=0;outlineConnect=0;html=1;align=center;labelPosition=center;verticalLabelPosition=bottom;verticalAlign=top;shape=mxgraph.webicons.google_plus;fillColor=#F24B46;gradientColor=#AD3832" vertex="1" parent="1">
          <mxGeometry x="752.62" y="370.25" width="34.75" height="34.75" as="geometry" />
        </mxCell>
        <mxCell id="05c5oO42lA_t3GkPCbME-30" value="&lt;font style=&quot;line-height: 0%; font-size: 6px;&quot;&gt;Google Oauth Provider&lt;/font&gt;" style="text;html=1;align=center;verticalAlign=middle;whiteSpace=wrap;rounded=0;strokeWidth=2;perimeterSpacing=0;" vertex="1" parent="1">
          <mxGeometry x="734.99" y="350" width="70.01" height="30" as="geometry" />
        </mxCell>
        <mxCell id="05c5oO42lA_t3GkPCbME-38" style="edgeStyle=orthogonalEdgeStyle;rounded=0;orthogonalLoop=1;jettySize=auto;html=1;entryX=0.5;entryY=0;entryDx=0;entryDy=0;startArrow=classic;startFill=1;" edge="1" parent="1" source="05c5oO42lA_t3GkPCbME-34" target="05c5oO42lA_t3GkPCbME-36">
          <mxGeometry relative="1" as="geometry" />
        </mxCell>
        <mxCell id="05c5oO42lA_t3GkPCbME-34" value="" style="dashed=0;outlineConnect=0;html=1;align=center;labelPosition=center;verticalLabelPosition=bottom;verticalAlign=top;shape=mxgraph.webicons.mongodb;gradientColor=#DFDEDE" vertex="1" parent="1">
          <mxGeometry x="910" y="368.82" width="73" height="69.75" as="geometry" />
        </mxCell>
        <mxCell id="05c5oO42lA_t3GkPCbME-33" value="" style="image;sketch=0;aspect=fixed;html=1;points=[];align=center;fontSize=12;image=img/lib/mscae/Docker.svg;" vertex="1" parent="1">
          <mxGeometry x="910" y="370.25" width="21.95" height="18" as="geometry" />
        </mxCell>
        <mxCell id="05c5oO42lA_t3GkPCbME-41" style="edgeStyle=orthogonalEdgeStyle;rounded=0;orthogonalLoop=1;jettySize=auto;html=1;startArrow=classic;startFill=1;" edge="1" parent="1" source="05c5oO42lA_t3GkPCbME-36" target="05c5oO42lA_t3GkPCbME-39">
          <mxGeometry relative="1" as="geometry" />
        </mxCell>
        <mxCell id="05c5oO42lA_t3GkPCbME-36" value="&lt;h6&gt;GrayLog&lt;/h6&gt;" style="whiteSpace=wrap;html=1;aspect=fixed;" vertex="1" parent="1">
          <mxGeometry x="916.5" y="490" width="60" height="60" as="geometry" />
        </mxCell>
        <mxCell id="05c5oO42lA_t3GkPCbME-37" value="" style="image;sketch=0;aspect=fixed;html=1;points=[];align=center;fontSize=12;image=img/lib/mscae/Docker.svg;" vertex="1" parent="1">
          <mxGeometry x="920.5" y="493" width="21.95" height="18" as="geometry" />
        </mxCell>
        <mxCell id="05c5oO42lA_t3GkPCbME-39" value="&lt;h6&gt;GrayLog&lt;/h6&gt;" style="whiteSpace=wrap;html=1;aspect=fixed;" vertex="1" parent="1">
          <mxGeometry x="916.5" y="603" width="60" height="60" as="geometry" />
        </mxCell>
        <mxCell id="05c5oO42lA_t3GkPCbME-40" value="" style="image;sketch=0;aspect=fixed;html=1;points=[];align=center;fontSize=12;image=img/lib/mscae/Docker.svg;" vertex="1" parent="1">
          <mxGeometry x="920.5" y="606" width="21.95" height="18" as="geometry" />
        </mxCell>
      </root>
    </mxGraphModel>
  </diagram>
</mxfile>
